<svg height="1.5em" class="logo" aria-label="interrupted" viewBox="0 0 1023 251" fill="none" xmlns="http://www.w3.org/2000/svg">
<path d="M199.285 73.1606C194.245 73.1606 190.366 72.0249 187.647 69.7536C184.918 67.3627 183.37 64.0752 183.004 59.8912C182.638 55.7072 183.955 52.2405 186.954 49.491C190.063 46.6219 194.078 45.1874 198.998 45.1874C203.438 45.1874 207.132 46.2633 210.08 48.4151C213.028 50.5669 214.675 53.6152 215.02 57.5601C215.438 62.3419 214.213 66.1673 211.344 69.0363C208.465 71.7858 204.445 73.1606 199.285 73.1606ZM206.269 169.453C198.469 169.453 192.529 166.703 188.448 161.204C184.487 155.705 182.109 148.413 181.314 139.328C180.843 133.948 180.902 127.075 181.49 118.707C182.187 110.219 183.297 102.329 184.819 95.037C185.564 91.2116 186.774 88.5816 188.449 87.1471C190.123 85.7126 192.94 84.9953 196.9 84.9953C203.02 84.9953 206.258 87.0276 206.614 91.0921C206.875 94.0806 206.342 101.014 205.014 111.893C203.284 125.042 202.623 133.948 203.031 138.611C203.345 142.197 204.065 144.946 205.193 146.859C206.32 148.772 208.024 149.728 210.304 149.728C212.464 149.728 215.033 148.234 218.012 145.245C220.99 142.257 224.897 137.535 229.732 131.079C231.026 129.406 232.573 128.569 234.373 128.569C235.933 128.569 237.195 129.286 238.161 130.721C239.246 132.155 239.899 134.128 240.119 136.638C240.537 141.42 239.721 145.126 237.671 147.756C227.057 162.22 216.589 169.453 206.269 169.453Z" fill="var(--text-0)"/>
<path d="M241.206 169.453C236.646 169.453 233.197 167.062 230.859 162.28C228.64 157.498 227.071 149.848 226.151 139.328C224.791 123.787 225.719 109.024 228.936 95.037C229.713 91.5702 231.233 89.0598 233.497 87.5058C235.87 85.8321 239.277 84.9953 243.717 84.9953C246.117 84.9953 247.823 85.2942 248.836 85.8919C249.848 86.4896 250.427 87.6253 250.574 89.2989C250.741 91.2116 250.218 95.5152 249.003 102.21C248.222 106.991 247.628 111.175 247.221 114.762C246.815 118.348 246.602 122.771 246.582 128.031C249.643 117.75 253.351 109.382 257.706 102.927C262.061 96.4715 266.459 91.8691 270.898 89.1196C275.458 86.3701 279.717 84.9953 283.677 84.9953C291.477 84.9953 295.717 88.8805 296.397 96.6508C296.805 101.313 296.222 109.741 294.649 121.934C293.279 132.335 292.74 139.208 293.033 142.555C293.451 147.337 295.401 149.728 298.881 149.728C301.281 149.728 303.975 148.294 306.964 145.425C310.063 142.436 314.084 137.654 319.029 131.079C320.323 129.406 321.869 128.569 323.669 128.569C325.229 128.569 326.492 129.286 327.458 130.721C328.543 132.155 329.196 134.128 329.415 136.638C329.834 141.42 329.018 145.126 326.968 147.756C322.362 154.091 317.237 159.292 311.593 163.356C306.069 167.42 299.526 169.453 291.966 169.453C285.846 169.453 281.075 167.719 277.651 164.253C274.218 160.666 272.208 155.526 271.622 148.831C271.329 145.484 271.646 139.507 272.573 130.9C273.475 123.369 273.8 118.169 273.549 115.3C273.381 113.387 272.638 112.431 271.318 112.431C269.758 112.431 267.715 114.463 265.191 118.527C262.776 122.472 260.356 127.732 257.931 134.307C255.627 140.882 253.893 147.815 252.731 155.108C251.903 160.726 250.678 164.551 249.055 166.584C247.543 168.496 244.926 169.453 241.206 169.453Z" fill="var(--text-0)"/>
<path d="M394.426 128.569C395.986 128.569 397.249 129.286 398.215 130.721C399.3 132.155 399.953 134.128 400.172 136.638C400.591 141.42 399.775 145.126 397.725 147.756C393.119 154.091 387.934 159.292 382.17 163.356C376.405 167.42 369.563 169.453 361.643 169.453C337.163 169.453 323.422 152.298 320.421 117.989C319.961 112.729 319.675 107.41 319.565 102.03H312.545C308.945 102.03 306.427 101.373 304.992 100.058C303.677 98.7428 302.894 96.6508 302.643 93.7818C302.057 87.0873 304.464 83.7401 309.864 83.7401H320.124C321.014 70.5904 323.083 58.5763 326.331 47.6978C329.579 36.8194 333.861 28.1525 339.176 21.6971C344.612 15.2418 350.749 12.0141 357.589 12.0141C362.629 12.0141 366.783 14.2257 370.05 18.6488C373.317 23.0719 375.243 28.6306 375.829 35.3251C377.45 53.8543 371.062 69.9927 356.664 83.7401H376.824C378.744 83.7401 380.161 84.1585 381.074 84.9953C381.987 85.8321 382.543 87.3862 382.742 89.6575C383.464 97.906 377.045 102.03 363.485 102.03H341.525C341.807 108.007 342.095 112.67 342.388 116.017C343.476 128.449 345.679 137.176 348.999 142.197C352.438 147.218 357.338 149.728 363.698 149.728C368.858 149.728 373.282 148.174 376.97 145.066C380.658 141.958 384.93 137.296 389.786 131.079C391.08 129.406 392.626 128.569 394.426 128.569ZM354.235 29.2284C352.435 29.2284 350.594 31.4997 348.711 36.0423C346.938 40.4654 345.382 46.6817 344.043 54.6911C342.813 62.581 341.962 71.3674 341.489 81.0504C348.036 74.9537 352.719 68.1397 355.541 60.6085C358.471 52.9577 359.665 46.0242 359.121 39.8079C358.504 32.7549 356.875 29.2284 354.235 29.2284Z" fill="var(--text-0)"/>
<path d="M465.09 128.569C466.65 128.569 467.913 129.286 468.879 130.721C469.964 132.155 470.617 134.128 470.836 136.638C471.255 141.42 470.439 145.126 468.389 147.756C464.42 153.135 458.554 158.096 450.791 162.639C443.149 167.181 434.707 169.453 425.467 169.453C412.867 169.453 402.789 166.046 395.233 159.232C387.677 152.418 383.381 143.093 382.346 131.259C381.624 123.01 382.695 115.359 385.558 108.306C388.41 101.134 392.713 95.4554 398.467 91.2714C404.341 87.0874 411.178 84.9953 418.978 84.9953C425.938 84.9953 431.701 87.0874 436.267 91.2714C440.823 95.3358 443.409 100.895 444.026 107.948C444.748 116.196 442.37 123.309 436.893 129.286C431.526 135.144 421.914 139.806 408.057 143.273C411.538 148.772 417.478 151.521 425.878 151.521C431.278 151.521 437.236 149.668 443.752 145.962C450.378 142.137 455.943 137.176 460.45 131.079C461.744 129.406 463.29 128.569 465.09 128.569ZM417.456 102.568C413.016 102.568 409.461 105.138 406.79 110.279C404.24 115.419 403.284 121.635 403.922 128.928L403.953 129.286C410.887 127.613 416.247 125.102 420.034 121.755C423.821 118.408 425.522 114.523 425.135 110.099C424.936 107.828 424.119 106.035 422.684 104.72C421.358 103.285 419.616 102.568 417.456 102.568Z" fill="var(--text-0)"/>
<path d="M471.831 169.453C467.271 169.453 463.822 167.062 461.484 162.28C459.265 157.498 457.696 149.848 456.776 139.328C455.416 123.787 456.344 109.024 459.561 95.037C460.338 91.5702 461.858 89.0598 464.122 87.5058C466.495 85.8321 469.902 84.9953 474.342 84.9953C476.742 84.9953 478.448 85.2942 479.461 85.8919C480.473 86.4896 481.052 87.6253 481.199 89.2989C481.366 91.2116 480.843 95.5152 479.628 102.21C478.847 106.991 478.253 111.175 477.846 114.762C477.44 118.348 477.227 122.771 477.207 128.031C480.268 117.75 483.976 109.382 488.331 102.927C492.686 96.4715 497.084 91.8691 501.523 89.1196C506.083 86.3701 510.342 84.9953 514.302 84.9953C522.102 84.9953 526.342 88.8805 527.022 96.6508C527.158 98.2049 526.947 101.97 526.39 107.948C525.849 112.729 525.63 115.718 525.735 116.913C526.101 121.097 527.784 123.189 530.784 123.189C534.144 123.189 538.234 120.559 543.054 115.3C544.478 113.746 546.03 112.968 547.71 112.968C549.27 112.968 550.532 113.686 551.498 115.12C552.573 116.435 553.21 118.228 553.409 120.5C553.795 124.923 552.899 128.39 550.718 130.9C547.662 134.367 543.963 137.355 539.623 139.866C535.392 142.257 530.757 143.452 525.717 143.452C519.357 143.452 514.355 141.838 510.713 138.611C507.191 135.383 505.189 131.02 504.708 125.521C504.551 123.727 504.574 121.934 504.777 120.141C504.808 117.75 504.787 116.136 504.714 115.3C504.546 113.387 503.803 112.431 502.483 112.431C500.683 112.431 498.46 114.463 495.816 118.527C493.281 122.472 490.861 127.732 488.556 134.307C486.252 140.882 484.518 147.815 483.356 155.108C482.528 160.726 481.303 164.551 479.68 166.584C478.168 168.496 475.551 169.453 471.831 169.453Z" fill="var(--text-0)"/>
<path d="M553.745 169.453C549.185 169.453 545.736 167.062 543.398 162.28C541.18 157.498 539.61 149.848 538.69 139.328C537.33 123.787 538.259 109.024 541.475 95.037C542.252 91.5702 543.772 89.0598 546.036 87.5058C548.41 85.8321 551.816 84.9953 556.256 84.9953C558.656 84.9953 560.362 85.2942 561.375 85.8919C562.387 86.4896 562.966 87.6253 563.113 89.2989C563.28 91.2116 562.757 95.5152 561.542 102.21C560.761 106.991 560.167 111.175 559.761 114.762C559.354 118.348 559.141 122.771 559.121 128.031C562.182 117.75 565.89 109.382 570.245 102.927C574.6 96.4715 578.998 91.8691 583.437 89.1196C587.997 86.3701 592.256 84.9953 596.216 84.9953C604.016 84.9953 608.256 88.8805 608.936 96.6508C609.072 98.2049 608.861 101.97 608.304 107.948C607.763 112.729 607.544 115.718 607.649 116.913C608.015 121.097 609.698 123.189 612.698 123.189C616.058 123.189 620.148 120.559 624.968 115.3C626.392 113.746 627.944 112.968 629.624 112.968C631.184 112.968 632.446 113.686 633.412 115.12C634.487 116.435 635.124 118.228 635.323 120.5C635.71 124.923 634.813 128.39 632.632 130.9C629.576 134.367 625.877 137.355 621.537 139.866C617.306 142.257 612.671 143.452 607.631 143.452C601.271 143.452 596.269 141.838 592.627 138.611C589.105 135.383 587.103 131.02 586.622 125.521C586.465 123.727 586.488 121.934 586.691 120.141C586.722 117.75 586.701 116.136 586.628 115.3C586.46 113.387 585.717 112.431 584.397 112.431C582.597 112.431 580.374 114.463 577.73 118.527C575.195 122.472 572.775 127.732 570.471 134.307C568.166 140.882 566.432 147.815 565.27 155.108C564.442 160.726 563.217 164.551 561.594 166.584C560.082 168.496 557.465 169.453 553.745 169.453Z" fill="var(--text-0)"/>
<path d="M641.239 169.453C635.839 169.453 631.185 167.002 627.276 162.101C623.477 157.08 621.253 150.864 620.605 143.452C619.82 134.486 619.704 126.298 620.255 118.886C620.797 111.355 622.081 103.405 624.109 95.037C624.995 91.4507 626.45 88.8805 628.474 87.3264C630.498 85.7724 633.85 84.9953 638.53 84.9953C641.17 84.9953 643.007 85.4137 644.04 86.2505C645.193 87.0873 645.843 88.3426 645.99 90.0162C646.073 90.9725 645.696 94.2002 644.857 99.6992C644.044 104.122 643.434 108.127 643.028 111.713C641.726 124.265 641.258 132.633 641.624 136.817C641.844 139.328 642.301 141.121 642.995 142.197C643.679 143.153 644.68 143.631 646 143.631C647.8 143.631 649.864 141.838 652.19 138.252C654.636 134.666 657.04 129.226 659.402 121.934C661.884 114.642 664.1 105.676 666.049 95.037C666.695 91.4507 667.91 88.8805 669.694 87.3264C671.598 85.7724 674.53 84.9953 678.49 84.9953C681.25 84.9953 683.202 85.354 684.345 86.0712C685.477 86.669 686.121 87.8644 686.278 89.6575C686.54 92.6461 685.756 100.835 683.928 114.224C681.906 129.525 681.053 138.969 681.366 142.555C681.565 144.827 682.202 146.62 683.277 147.935C684.341 149.13 685.654 149.728 687.214 149.728C689.614 149.728 692.308 148.294 695.297 145.425C698.396 142.436 702.417 137.654 707.362 131.079C708.656 129.406 710.203 128.569 712.003 128.569C713.563 128.569 714.825 129.286 715.791 130.721C716.876 132.155 717.529 134.128 717.749 136.638C718.167 141.42 717.351 145.126 715.301 147.756C710.695 154.091 705.57 159.292 699.926 163.356C694.402 167.42 687.859 169.453 680.299 169.453C674.539 169.453 670.086 167.241 666.939 162.818C663.912 158.395 662.048 152.179 661.347 144.169C660.019 152.298 657.508 158.574 653.815 162.997C650.111 167.301 645.919 169.453 641.239 169.453Z" fill="var(--text-0)"/>
<path d="M798.567 128.569C800.127 128.569 801.39 129.286 802.355 130.721C803.441 132.155 804.094 134.128 804.313 136.638C804.731 141.42 803.916 145.126 801.866 147.756C797.26 154.091 792.135 159.292 786.491 163.356C780.966 167.42 774.424 169.453 766.864 169.453C760.504 169.453 755.145 167.181 750.788 162.639C744.335 167.062 737.394 169.333 729.964 169.453C730.423 192.525 728.566 211.771 724.396 227.192C720.235 242.733 712.815 250.503 702.135 250.503C695.655 250.503 690.651 248.172 687.123 243.51C683.595 238.848 681.47 232.392 680.749 224.144C679.724 212.429 681.226 198.741 685.256 183.081C689.297 167.54 696.136 150.386 705.774 131.617C704.247 114.164 703.065 102.03 702.229 95.2163C701.806 91.7495 702.945 89 705.648 86.9678C708.35 84.9356 711.861 83.9194 716.181 83.9194C718.701 83.9194 720.548 84.4574 721.722 85.5333C723.006 86.4896 723.838 88.4621 724.22 91.4507C724.481 94.4393 724.735 96.6508 724.98 98.0853C728.402 93.3036 731.884 89.8966 735.426 87.8644C738.958 85.7126 742.824 84.6367 747.024 84.6367C753.744 84.6367 759.439 87.3264 764.11 92.7059C768.9 98.0853 771.677 105.138 772.441 113.865C772.995 120.201 772.514 126.357 770.997 132.335C769.479 138.312 767.135 143.751 763.964 148.652C766.547 149.369 768.678 149.728 770.358 149.728C774.318 149.728 777.973 148.294 781.322 145.425C784.671 142.555 788.872 137.774 793.927 131.079C795.22 129.406 796.767 128.569 798.567 128.569ZM729.358 152.238C733.594 151.282 737.35 148.951 740.626 145.245C744.011 141.42 746.544 136.758 748.222 131.259C749.891 125.64 750.458 119.782 749.925 113.686C749.611 110.099 748.656 107.41 747.059 105.617C745.452 103.704 743.448 102.748 741.048 102.748C736.728 102.748 731.905 107.29 726.58 116.375C726.921 121.635 727.535 129.346 728.424 139.507C728.905 145.006 729.216 149.25 729.358 152.238ZM702.038 232.93C705.278 232.93 707.36 225.877 708.286 211.771C709.223 197.785 709.076 180.331 707.845 159.411C703.731 171.365 700.65 182.782 698.602 193.66C696.554 204.539 695.854 213.684 696.502 221.095C696.837 224.921 697.573 227.85 698.711 229.882C699.729 231.914 700.838 232.93 702.038 232.93Z" fill="var(--text-0)"/>
<path d="M869.387 128.569C870.947 128.569 872.21 129.286 873.176 130.721C874.261 132.155 874.914 134.128 875.133 136.638C875.552 141.42 874.736 145.126 872.686 147.756C868.08 154.091 862.895 159.292 857.131 163.356C851.366 167.42 844.524 169.453 836.604 169.453C812.124 169.453 798.383 152.298 795.382 117.989C794.922 112.729 794.636 107.41 794.525 102.03H787.505C783.905 102.03 781.388 101.373 779.953 100.058C778.638 98.7428 777.855 96.6508 777.604 93.7818C777.018 87.0873 779.425 83.7401 784.825 83.7401H795.085C795.975 70.5904 798.044 58.5763 801.292 47.6978C804.54 36.8194 808.822 28.1525 814.137 21.6971C819.572 15.2418 825.71 12.0141 832.55 12.0141C837.59 12.0141 841.744 14.2257 845.01 18.6488C848.277 23.0719 850.204 28.6306 850.789 35.3251C852.411 53.8543 846.023 69.9927 831.625 83.7401H851.785C853.705 83.7401 855.122 84.1585 856.035 84.9953C856.948 85.8321 857.504 87.3862 857.703 89.6575C858.425 97.906 852.005 102.03 838.445 102.03H816.485C816.768 108.007 817.056 112.67 817.349 116.017C818.437 128.449 820.64 137.176 823.96 142.197C827.399 147.218 832.299 149.728 838.659 149.728C843.818 149.728 848.243 148.174 851.931 145.066C855.619 141.958 859.891 137.296 864.747 131.079C866.041 129.406 867.587 128.569 869.387 128.569ZM829.196 29.2284C827.396 29.2284 825.555 31.4997 823.672 36.0423C821.899 40.4654 820.343 46.6817 819.004 54.6911C817.774 62.581 816.923 71.3674 816.45 81.0504C822.997 74.9537 827.68 68.1397 830.502 60.6085C833.432 52.9577 834.626 46.0242 834.082 39.8079C833.465 32.7549 831.836 29.2284 829.196 29.2284Z" fill="var(--text-0)"/>
<path d="M940.051 128.569C941.611 128.569 942.874 129.286 943.84 130.721C944.925 132.155 945.578 134.128 945.797 136.638C946.216 141.42 945.4 145.126 943.35 147.756C939.381 153.135 933.515 158.096 925.752 162.639C918.109 167.181 909.668 169.453 900.428 169.453C887.828 169.453 877.75 166.046 870.194 159.232C862.638 152.418 858.342 143.093 857.307 131.259C856.585 123.01 857.656 115.359 860.519 108.306C863.371 101.134 867.674 95.4554 873.428 91.2714C879.302 87.0874 886.139 84.9953 893.939 84.9953C900.899 84.9953 906.662 87.0874 911.228 91.2714C915.784 95.3358 918.37 100.895 918.987 107.948C919.709 116.196 917.331 123.309 911.854 129.286C906.487 135.144 896.874 139.806 883.018 143.273C886.499 148.772 892.439 151.521 900.839 151.521C906.239 151.521 912.197 149.668 918.713 145.962C925.338 142.137 930.904 137.176 935.411 131.079C936.705 129.406 938.251 128.569 940.051 128.569ZM892.417 102.568C887.977 102.568 884.421 105.138 881.751 110.279C879.201 115.419 878.245 121.635 878.883 128.928L878.914 129.286C885.848 127.613 891.208 125.102 894.995 121.755C898.782 118.408 900.482 114.523 900.095 110.099C899.897 107.828 899.08 106.035 897.645 104.72C896.319 103.285 894.577 102.568 892.417 102.568Z" fill="var(--text-0)"/>
<path d="M995.077 128.569C997.254 138.371 1000.02 148.054 1003.38 157.618C1003.99 159.172 1004.38 160.786 1004.52 162.459C1004.99 167.839 1001.93 170.529 995.328 170.529C991.608 170.529 988.639 169.513 986.421 167.48C984.323 165.448 982.188 161.623 980.017 156.004L979.774 155.287C975.706 160.905 971.895 164.671 968.342 166.584C964.91 168.496 960.793 169.453 955.993 169.453C948.673 169.453 942.378 166.763 937.107 161.384C931.946 155.885 928.984 148.772 928.221 140.045C927.384 130.482 928.65 121.635 932.019 113.506C935.388 105.377 940.387 98.7428 947.017 93.6025C953.637 88.3426 961.28 85.1747 969.946 84.0988C970.249 61.5051 972.849 41.8402 977.745 25.1041C982.76 8.36804 990.608 0 1001.29 0C1006.45 0 1010.91 2.3311 1014.68 6.99329C1018.57 11.6555 1020.92 18.7085 1021.75 28.1525C1022.9 41.3022 1021.01 56.6636 1016.06 74.2364C1011.12 91.8093 1004.12 109.92 995.077 128.569ZM1000.85 17.5729C997.366 17.5729 994.84 26.4191 993.267 44.1115C991.815 61.8039 991.459 81.0504 992.199 101.851C1003.01 73.1605 1007.63 49.8496 1006.06 31.9181C1005.66 27.3754 1004.93 23.8489 1003.88 21.3385C1002.94 18.8281 1001.93 17.5729 1000.85 17.5729ZM960.709 151.342C963.109 151.342 965.31 150.445 967.314 148.652C969.437 146.859 972.013 143.392 975.044 138.252C973.08 129.525 971.691 120.5 970.875 111.175C970.551 107.469 970.36 104.6 970.302 102.568C963.869 104.481 958.791 108.844 955.067 115.658C951.343 122.472 949.842 130.003 950.564 138.252C951.327 146.979 954.709 151.342 960.709 151.342Z" fill="var(--text-0)"/>
<path d="M75 96.5C75 100.642 71.6421 104 67.5 104H57.5C53.3579 104 50 107.358 50 111.5V121.5C50 125.642 46.6421 129 42.5 129H7.5C3.35786 129 0 125.642 0 121.5V111.5C0 107.358 3.35786 104 7.5 104H17.5C21.6421 104 25 100.642 25 96.5V86.5C25 82.3579 28.3579 79 32.5 79H42.5C46.6421 79 50 75.6421 50 71.5V61.5C50 57.3579 53.3579 54 57.5 54H75V96.5Z" fill="var(--text-0)"/>
<path d="M100 46.5C100 50.6421 96.6421 54 92.5 54H75V36.5C75 32.3579 78.3579 29 82.5 29H92.5C96.6421 29 100 32.3579 100 36.5V46.5Z" fill="var(--text-0)"/>
<path d="M50 136.5C50 132.358 53.3578 129 57.5 129H67.5C71.6421 129 75 125.642 75 121.5V111.5C75 107.358 78.3578 104 82.5 104L117.5 104C121.642 104 125 107.358 125 111.5V121.5C125 125.642 121.642 129 117.5 129L107.5 129C103.358 129 100 132.358 100 136.5V146.5C100 150.642 96.6421 154 92.5 154H82.5C78.3578 154 75 157.358 75 161.5V171.5C75 175.642 71.6421 179 67.5 179H50L50 136.5Z" fill="var(--primary)"/>
<path d="M25 186.5C25 182.358 28.3578 179 32.5 179L50 179L50 196.5C50 200.642 46.6421 204 42.5 204L32.5 204C28.3578 204 25 200.642 25 196.5L25 186.5Z" fill="var(--primary)"/>
</svg>
