<svg height="1.5em" class="logo" aria-label="interrupted" viewBox="0 0 927 225" fill="none" xmlns="http://www.w3.org/2000/svg">
<path d="M188.414 65.7122C183.889 65.7122 180.407 64.6922 177.967 62.6521C175.517 60.5047 174.128 57.5519 173.799 53.7938C173.47 50.0358 174.652 46.922 177.345 44.4524C180.136 41.8755 183.739 40.587 188.156 40.587C192.141 40.587 195.457 41.5533 198.104 43.486C200.75 45.4188 202.229 48.1568 202.538 51.7001C202.914 55.995 201.814 59.4309 199.239 62.0079C196.654 64.4775 193.046 65.7122 188.414 65.7122ZM194.683 152.201C187.682 152.201 182.349 149.732 178.686 144.792C175.13 139.853 172.995 133.304 172.282 125.143C171.859 120.311 171.912 114.137 172.44 106.621C173.066 98.9979 174.062 91.9112 175.428 85.3615C176.097 81.9256 177.183 79.5633 178.686 78.2749C180.189 76.9864 182.718 76.3422 186.273 76.3422C191.767 76.3422 194.673 78.1675 194.992 81.8182C195.227 84.5025 194.748 90.7301 193.556 100.501C192.003 112.312 191.41 120.311 191.776 124.499C192.058 127.72 192.705 130.19 193.717 131.908C194.729 133.626 196.258 134.485 198.305 134.485C200.244 134.485 202.55 133.142 205.224 130.458C207.897 127.774 211.405 123.533 215.745 117.734C216.906 116.231 218.295 115.48 219.91 115.48C221.311 115.48 222.444 116.124 223.311 117.412C224.285 118.701 224.871 120.472 225.068 122.727C225.444 127.022 224.712 130.351 222.871 132.713C213.343 145.705 203.947 152.201 194.683 152.201Z" fill="var(--text-0)"/>
<path d="M226.045 152.201C221.951 152.201 218.855 150.054 216.756 145.759C214.765 141.464 213.356 134.592 212.53 125.143C211.309 111.185 212.143 97.9241 215.03 85.3615C215.727 82.2477 217.092 79.9928 219.124 78.597C221.255 77.0938 224.313 76.3422 228.299 76.3422C230.453 76.3422 231.985 76.6106 232.893 77.1475C233.802 77.6843 234.322 78.7044 234.454 80.2076C234.604 81.9256 234.134 85.791 233.044 91.8039C232.342 96.0988 231.809 99.8568 231.444 103.078C231.08 106.299 230.888 110.272 230.871 114.996C233.618 105.762 236.946 98.2462 240.856 92.4481C244.765 86.65 248.713 82.5161 252.698 80.0465C256.791 77.5769 260.614 76.3422 264.169 76.3422C271.171 76.3422 274.977 79.8318 275.587 86.811C275.953 90.9986 275.43 98.5684 274.018 109.52C272.788 118.862 272.305 125.036 272.568 128.042C272.943 132.337 274.693 134.485 277.817 134.485C279.971 134.485 282.39 133.196 285.073 130.619C287.854 127.935 291.464 123.64 295.903 117.734C297.064 116.231 298.453 115.48 300.068 115.48C301.469 115.48 302.602 116.124 303.469 117.412C304.443 118.701 305.029 120.472 305.226 122.727C305.602 127.022 304.87 130.351 303.03 132.713C298.895 138.404 294.295 143.074 289.228 146.725C284.269 150.376 278.396 152.201 271.61 152.201C266.116 152.201 261.833 150.644 258.76 147.53C255.678 144.309 253.874 139.692 253.348 133.679C253.085 130.673 253.37 125.304 254.202 117.573C255.011 110.809 255.302 106.138 255.077 103.561C254.927 101.843 254.259 100.984 253.074 100.984C251.674 100.984 249.841 102.81 247.575 106.46C245.407 110.004 243.235 114.728 241.058 120.633C238.989 126.539 237.433 132.767 236.39 139.316C235.647 144.363 234.547 147.799 233.09 149.624C231.733 151.342 229.384 152.201 226.045 152.201Z" fill="var(--text-0)"/>
<path d="M363.584 115.48C364.984 115.48 366.118 116.124 366.985 117.412C367.959 118.701 368.545 120.472 368.742 122.727C369.117 127.022 368.385 130.351 366.545 132.713C362.411 138.404 357.756 143.074 352.582 146.725C347.407 150.376 341.265 152.201 334.156 152.201C312.181 152.201 299.847 136.793 297.152 105.977C296.739 101.253 296.483 96.4746 296.384 91.6428H290.082C286.85 91.6428 284.591 91.0523 283.302 89.8711C282.122 88.69 281.419 86.811 281.194 84.2341C280.668 78.2212 282.829 75.2148 287.676 75.2148H296.886C297.685 63.4037 299.542 52.6127 302.458 42.8418C305.373 33.0709 309.217 25.2863 313.988 19.4882C318.867 13.6901 324.377 10.791 330.517 10.791C335.041 10.791 338.769 12.7774 341.702 16.7502C344.635 20.723 346.364 25.7158 346.89 31.7287C348.345 48.3715 342.61 62.8669 329.687 75.2148H347.783C349.507 75.2148 350.779 75.5906 351.598 76.3422C352.418 77.0938 352.917 78.4896 353.095 80.5297C353.743 87.9384 347.981 91.6428 335.809 91.6428H316.096C316.35 97.0115 316.609 101.199 316.871 104.205C317.848 115.372 319.826 123.21 322.805 127.72C325.893 132.23 330.291 134.485 336 134.485C340.632 134.485 344.603 133.089 347.914 130.297C351.224 127.505 355.059 123.318 359.419 117.734C360.58 116.231 361.968 115.48 363.584 115.48ZM327.506 26.2527C325.89 26.2527 324.237 28.2928 322.548 32.3729C320.956 36.3457 319.559 41.9291 318.357 49.1231C317.253 56.2097 316.489 64.1017 316.064 72.7989C321.941 67.3228 326.145 61.2026 328.678 54.4381C331.309 47.5662 332.38 41.3386 331.892 35.7552C331.338 29.4202 329.876 26.2527 327.506 26.2527Z" fill="var(--text-0)"/>
<path d="M427.016 115.48C428.417 115.48 429.55 116.124 430.417 117.412C431.391 118.701 431.977 120.472 432.174 122.727C432.55 127.022 431.817 130.351 429.977 132.713C426.414 137.545 421.148 142.001 414.18 146.081C407.32 150.161 399.743 152.201 391.448 152.201C380.138 152.201 371.091 149.141 364.308 143.021C357.525 136.901 353.669 128.525 352.74 117.895C352.092 110.487 353.053 103.615 355.623 97.2799C358.183 90.8375 362.046 85.7373 367.211 81.9792C372.484 78.2212 378.621 76.3422 385.623 76.3422C391.871 76.3422 397.044 78.2212 401.143 81.9792C405.232 85.6299 407.554 90.6228 408.108 96.9578C408.756 104.366 406.621 110.755 401.705 116.124C396.886 121.385 388.258 125.573 375.819 128.686C378.944 133.626 384.277 136.095 391.817 136.095C396.665 136.095 402.013 134.431 407.862 131.102C413.809 127.666 418.805 123.21 422.851 117.734C424.012 116.231 425.4 115.48 427.016 115.48ZM384.256 92.126C380.271 92.126 377.08 94.4345 374.683 99.0515C372.393 103.669 371.535 109.252 372.108 115.802L372.136 116.124C378.36 114.621 383.172 112.366 386.571 109.359C389.971 106.353 391.497 102.863 391.149 98.8905C390.971 96.8504 390.238 95.2398 388.95 94.0587C387.76 92.7702 386.195 92.126 384.256 92.126Z" fill="var(--text-0)"/>
<path d="M433.067 152.201C428.974 152.201 425.878 150.054 423.779 145.759C421.787 141.464 420.379 134.592 419.552 125.143C418.332 111.185 419.165 97.9241 422.053 85.3615C422.75 82.2477 424.114 79.9928 426.147 78.597C428.277 77.0938 431.336 76.3422 435.321 76.3422C437.476 76.3422 439.007 76.6106 439.916 77.1475C440.825 77.6843 441.345 78.7044 441.476 80.2076C441.626 81.9256 441.156 85.791 440.066 91.8039C439.365 96.0988 438.831 99.8568 438.467 103.078C438.102 106.299 437.911 110.272 437.893 114.996C440.64 105.762 443.969 98.2462 447.878 92.4481C451.788 86.65 455.735 82.5161 459.72 80.0465C463.813 77.5769 467.637 76.3422 471.192 76.3422C478.193 76.3422 481.999 79.8318 482.61 86.811C482.732 88.2069 482.543 91.5891 482.043 96.9578C481.556 101.253 481.36 103.937 481.454 105.011C481.783 108.769 483.293 110.648 485.986 110.648C489.003 110.648 492.674 108.286 497 103.561C498.279 102.165 499.672 101.467 501.18 101.467C502.58 101.467 503.714 102.112 504.581 103.4C505.546 104.581 506.117 106.192 506.296 108.232C506.643 112.205 505.838 115.319 503.881 117.573C501.137 120.687 497.817 123.372 493.921 125.626C490.123 127.774 485.962 128.848 481.438 128.848C475.729 128.848 471.239 127.398 467.97 124.499C464.808 121.6 463.011 117.681 462.579 112.742C462.438 111.131 462.459 109.52 462.641 107.91C462.669 105.762 462.65 104.313 462.584 103.561C462.434 101.843 461.766 100.984 460.582 100.984C458.966 100.984 456.971 102.81 454.597 106.46C452.322 110.004 450.15 114.728 448.081 120.633C446.012 126.539 444.456 132.767 443.413 139.316C442.669 144.363 441.569 147.799 440.113 149.624C438.755 151.342 436.407 152.201 433.067 152.201Z" fill="var(--text-0)"/>
<path d="M506.598 152.201C502.505 152.201 499.409 150.054 497.31 145.759C495.318 141.464 493.909 134.592 493.083 125.143C491.863 111.185 492.696 97.9241 495.583 85.3615C496.281 82.2477 497.645 79.9928 499.678 78.597C501.808 77.0938 504.866 76.3422 508.852 76.3422C511.006 76.3422 512.538 76.6106 513.447 77.1475C514.355 77.6843 514.875 78.7044 515.007 80.2076C515.157 81.9256 514.687 85.791 513.597 91.8039C512.895 96.0988 512.362 99.8568 511.998 103.078C511.633 106.299 511.442 110.272 511.424 114.996C514.171 105.762 517.5 98.2462 521.409 92.4481C525.319 86.65 529.266 82.5161 533.251 80.0465C537.344 77.5769 541.168 76.3422 544.722 76.3422C551.724 76.3422 555.53 79.8318 556.14 86.811C556.262 88.2069 556.074 91.5891 555.573 96.9578C555.087 101.253 554.891 103.937 554.985 105.011C555.314 108.769 556.824 110.648 559.517 110.648C562.533 110.648 566.205 108.286 570.531 103.561C571.81 102.165 573.203 101.467 574.711 101.467C576.111 101.467 577.245 102.112 578.111 103.4C579.076 104.581 579.648 106.192 579.827 108.232C580.174 112.205 579.369 115.319 577.412 117.573C574.668 120.687 571.348 123.372 567.452 125.626C563.654 127.774 559.493 128.848 554.969 128.848C549.26 128.848 544.77 127.398 541.501 124.499C538.339 121.6 536.542 117.681 536.11 112.742C535.969 111.131 535.99 109.52 536.172 107.91C536.2 105.762 536.181 104.313 536.115 103.561C535.965 101.843 535.297 100.984 534.112 100.984C532.497 100.984 530.502 102.81 528.128 106.46C525.853 110.004 523.68 114.728 521.612 120.633C519.543 126.539 517.987 132.767 516.944 139.316C516.2 144.363 515.1 147.799 513.644 149.624C512.286 151.342 509.937 152.201 506.598 152.201Z" fill="var(--text-0)"/>
<path d="M585.138 152.201C580.291 152.201 576.112 150 572.604 145.598C569.193 141.088 567.197 135.505 566.615 128.848C565.911 120.795 565.806 113.44 566.301 106.782C566.787 100.018 567.94 92.8776 569.761 85.3615C570.556 82.1403 571.862 79.8318 573.679 78.4359C575.496 77.0401 578.505 76.3422 582.706 76.3422C585.076 76.3422 586.725 76.718 587.652 77.4696C588.687 78.2212 589.271 79.3486 589.402 80.8518C589.477 81.7108 589.138 84.6099 588.385 89.549C587.655 93.5218 587.108 97.1188 586.743 100.34C585.575 111.614 585.155 119.13 585.483 122.888C585.68 125.143 586.091 126.754 586.714 127.72C587.327 128.579 588.227 129.009 589.412 129.009C591.027 129.009 592.879 127.398 594.968 124.177C597.163 120.956 599.321 116.07 601.442 109.52C603.67 102.971 605.659 94.9177 607.408 85.3615C607.988 82.1403 609.079 79.8318 610.681 78.4359C612.39 77.0401 615.022 76.3422 618.577 76.3422C621.054 76.3422 622.806 76.6643 623.832 77.3085C624.848 77.8454 625.427 78.9191 625.567 80.5297C625.802 83.214 625.099 90.5691 623.457 102.595C621.643 116.339 620.876 124.821 621.158 128.042C621.336 130.082 621.908 131.693 622.873 132.874C623.829 133.948 625.007 134.485 626.407 134.485C628.562 134.485 630.98 133.196 633.663 130.619C636.445 127.935 640.055 123.64 644.494 117.734C645.655 116.231 647.043 115.48 648.659 115.48C650.059 115.48 651.193 116.124 652.06 117.412C653.034 118.701 653.62 120.472 653.817 122.727C654.192 127.022 653.46 130.351 651.62 132.713C647.486 138.404 642.885 143.074 637.818 146.725C632.859 150.376 626.987 152.201 620.2 152.201C615.03 152.201 611.032 150.215 608.207 146.242C605.49 142.269 603.817 136.686 603.188 129.492C601.995 136.793 599.741 142.43 596.426 146.403C593.102 150.268 589.339 152.201 585.138 152.201Z" fill="var(--text-0)"/>
<path d="M726.364 115.48C727.765 115.48 728.898 116.124 729.765 117.412C730.739 118.701 731.325 120.472 731.522 122.727C731.898 127.022 731.166 130.351 729.325 132.713C725.191 138.404 720.591 143.074 715.524 146.725C710.565 150.376 704.692 152.201 697.906 152.201C692.197 152.201 687.386 150.161 683.475 146.081C677.682 150.054 671.451 152.094 664.782 152.201C665.194 172.924 663.528 190.211 659.784 204.062C656.049 218.021 649.388 225 639.801 225C633.984 225 629.493 222.906 626.326 218.719C623.159 214.531 621.252 208.733 620.604 201.324C619.684 190.802 621.032 178.508 624.65 164.442C628.277 150.483 634.416 135.075 643.068 118.218C641.697 102.541 640.636 91.6428 639.886 85.5226C639.506 82.4087 640.529 79.9392 642.954 78.1138C645.38 76.2885 648.532 75.3758 652.41 75.3758C654.672 75.3758 656.33 75.859 657.384 76.8253C658.536 77.6843 659.283 79.456 659.626 82.1403C659.861 84.8246 660.088 86.811 660.308 88.0995C663.38 83.8046 666.506 80.7445 669.685 78.9191C672.856 76.9864 676.326 76.02 680.096 76.02C686.128 76.02 691.241 78.4359 695.433 83.2677C699.734 88.0995 702.226 94.4345 702.912 102.273C703.409 107.963 702.977 113.493 701.615 118.862C700.254 124.231 698.149 129.116 695.303 133.518C697.621 134.163 699.535 134.485 701.043 134.485C704.597 134.485 707.878 133.196 710.884 130.619C713.89 128.042 717.662 123.747 722.199 117.734C723.36 116.231 724.749 115.48 726.364 115.48ZM664.238 136.739C668.041 135.88 671.413 133.787 674.353 130.458C677.392 127.022 679.665 122.835 681.172 117.895C682.67 112.849 683.179 107.588 682.7 102.112C682.419 98.8905 681.561 96.4746 680.128 94.864C678.685 93.146 676.886 92.287 674.732 92.287C670.854 92.287 666.525 96.3672 661.745 104.528C662.05 109.252 662.602 116.178 663.4 125.304C663.832 130.243 664.111 134.055 664.238 136.739ZM639.714 209.216C642.622 209.216 644.492 202.881 645.323 190.211C646.164 177.649 646.032 161.972 644.927 143.182C641.234 153.919 638.468 164.173 636.63 173.944C634.791 183.715 634.163 191.929 634.745 198.586C635.045 202.022 635.706 204.653 636.728 206.478C637.641 208.304 638.637 209.216 639.714 209.216Z" fill="var(--text-0)"/>
<path d="M789.937 115.48C791.337 115.48 792.471 116.124 793.337 117.412C794.312 118.701 794.897 120.472 795.095 122.727C795.47 127.022 794.738 130.351 792.898 132.713C788.763 138.404 784.109 143.074 778.935 146.725C773.76 150.376 767.618 152.201 760.509 152.201C738.534 152.201 726.199 136.793 723.505 105.977C723.092 101.253 722.836 96.4746 722.736 91.6428H716.435C713.203 91.6428 710.943 91.0523 709.655 89.8711C708.475 88.69 707.772 86.811 707.547 84.2341C707.021 78.2212 709.182 75.2148 714.029 75.2148H723.239C724.037 63.4037 725.895 52.6127 728.81 42.8418C731.726 33.0709 735.57 25.2863 740.341 19.4882C745.22 13.6901 750.729 10.791 756.869 10.791C761.394 10.791 765.122 12.7774 768.055 16.7502C770.987 20.723 772.717 25.7158 773.242 31.7287C774.697 48.3715 768.963 62.8669 756.039 75.2148H774.136C775.86 75.2148 777.131 75.5906 777.951 76.3422C778.771 77.0938 779.27 78.4896 779.448 80.5297C780.096 87.9384 774.334 91.6428 762.162 91.6428H742.449C742.703 97.0115 742.961 101.199 743.224 104.205C744.201 115.372 746.179 123.21 749.158 127.72C752.245 132.23 756.644 134.485 762.353 134.485C766.985 134.485 770.956 133.089 774.267 130.297C777.577 127.505 781.412 123.318 785.771 117.734C786.932 116.231 788.321 115.48 789.937 115.48ZM753.859 26.2527C752.243 26.2527 750.59 28.2928 748.9 32.3729C747.309 36.3457 745.912 41.9291 744.71 49.1231C743.606 56.2097 742.842 64.1017 742.417 72.7989C748.294 67.3228 752.498 61.2026 755.031 54.4381C757.661 47.5662 758.733 41.3386 758.244 35.7552C757.69 29.4202 756.229 26.2527 753.859 26.2527Z" fill="var(--text-0)"/>
<path d="M853.369 115.48C854.769 115.48 855.903 116.124 856.769 117.412C857.744 118.701 858.33 120.472 858.527 122.727C858.902 127.022 858.17 130.351 856.33 132.713C852.767 137.545 847.501 142.001 840.533 146.081C833.673 150.161 826.095 152.201 817.801 152.201C806.49 152.201 797.444 149.141 790.661 143.021C783.878 136.901 780.022 128.525 779.092 117.895C778.445 110.487 779.406 103.615 781.976 97.2799C784.536 90.8375 788.399 85.7373 793.564 81.9792C798.837 78.2212 804.974 76.3422 811.976 76.3422C818.224 76.3422 823.397 78.2212 827.496 81.9792C831.585 85.6299 833.907 90.6228 834.461 96.9578C835.108 104.366 832.974 110.755 828.057 116.124C823.239 121.385 814.611 125.573 802.172 128.686C805.297 133.626 810.63 136.095 818.17 136.095C823.017 136.095 828.365 134.431 834.214 131.102C840.162 127.666 845.158 123.21 849.203 117.734C850.365 116.231 851.753 115.48 853.369 115.48ZM810.609 92.126C806.624 92.126 803.432 94.4345 801.035 99.0515C798.746 103.669 797.888 109.252 798.46 115.802L798.489 116.124C804.713 114.621 809.524 112.366 812.924 109.359C816.323 106.353 817.85 102.863 817.502 98.8905C817.324 96.8504 816.591 95.2398 815.302 94.0587C814.112 92.7702 812.548 92.126 810.609 92.126Z" fill="var(--text-0)"/>
<path d="M902.763 115.48C904.718 124.284 907.201 132.981 910.215 141.571C910.768 142.967 911.11 144.417 911.241 145.92C911.664 150.752 908.913 153.168 902.988 153.168C899.649 153.168 896.984 152.255 894.993 150.43C893.11 148.604 891.194 145.168 889.244 140.122L889.026 139.477C885.374 144.524 881.954 147.906 878.765 149.624C875.683 151.342 871.988 152.201 867.679 152.201C861.109 152.201 855.458 149.785 850.726 144.953C846.093 140.014 843.434 133.626 842.749 125.787C841.998 117.198 843.134 109.252 846.158 101.951C849.182 94.6492 853.67 88.69 859.622 84.073C865.564 79.3486 872.425 76.5032 880.204 75.5369C880.476 55.2434 882.81 37.5805 887.204 22.5483C891.707 7.51611 898.752 0 908.339 0C912.971 0 916.978 2.09377 920.36 6.28132C923.85 10.4689 925.966 16.8039 926.708 25.2863C927.74 37.0974 926.038 50.8948 921.601 66.6786C917.165 82.4624 910.885 98.7294 902.763 115.48ZM907.941 15.7838C904.818 15.7838 902.55 23.7294 901.139 39.6206C899.835 55.5118 899.516 72.7989 900.18 91.4818C909.883 65.7122 914.031 44.7745 912.623 28.6686C912.266 24.5884 911.612 21.4209 910.661 19.1661C909.817 16.9112 908.911 15.7838 907.941 15.7838ZM871.912 135.934C874.067 135.934 876.043 135.129 877.841 133.518C879.747 131.908 882.06 128.794 884.78 124.177C883.018 116.339 881.77 108.232 881.038 99.8568C880.747 96.5283 880.575 93.9513 880.523 92.126C874.749 93.844 870.191 97.7631 866.848 103.883C863.505 110.004 862.158 116.768 862.805 124.177C863.491 132.015 866.526 135.934 871.912 135.934Z" fill="var(--text-0)"/>
<path d="M75 94.5C75 98.6421 71.6421 102 67.5 102H57.5C53.3579 102 50 105.358 50 109.5V119.5C50 123.642 46.6421 127 42.5 127H7.5C3.35786 127 0 123.642 0 119.5V109.5C0 105.358 3.35786 102 7.5 102H17.5C21.6421 102 25 98.6421 25 94.5V84.5C25 80.3579 28.3579 77 32.5 77H42.5C46.6421 77 50 73.6421 50 69.5V59.5C50 55.3579 53.3579 52 57.5 52H75V94.5Z" fill="var(--text-0)"/>
<path d="M100 44.5C100 48.6421 96.6421 52 92.5 52H75V34.5C75 30.3579 78.3579 27 82.5 27H92.5C96.6421 27 100 30.3579 100 34.5V44.5Z" fill="var(--text-0)"/>
<path d="M50 134.5C50 130.358 53.3578 127 57.5 127H67.5C71.6421 127 75 123.642 75 119.5V109.5C75 105.358 78.3578 102 82.5 102L117.5 102C121.642 102 125 105.358 125 109.5V119.5C125 123.642 121.642 127 117.5 127L107.5 127C103.358 127 100 130.358 100 134.5V144.5C100 148.642 96.6421 152 92.5 152H82.5C78.3578 152 75 155.358 75 159.5V169.5C75 173.642 71.6421 177 67.5 177H50L50 134.5Z" fill="var(--primary)"/>
<path d="M25 184.5C25 180.358 28.3578 177 32.5 177L50 177L50 194.5C50 198.642 46.6421 202 42.5 202L32.5 202C28.3578 202 25 198.642 25 194.5L25 184.5Z" fill="var(--primary)"/>
</svg>
