<svg viewBox="0 0 250 350" fill="none" xmlns="http://www.w3.org/2000/svg">
<path d="M150 135C150 143.284 143.284 150 135 150H115C106.716 150 100 156.716 100 165V185C100 193.284 93.2843 200 85.0001 200H15.0001C6.71579 200 6.10352e-05 193.284 6.10352e-05 185V165C6.10352e-05 156.716 6.71579 150 15.0001 150H35.0001C43.2843 150 50.0001 143.284 50.0001 135V115C50.0001 106.716 56.7158 100 65.0001 100H85.0001C93.2843 100 100 93.2843 100 85V65C100 56.7157 106.716 50 115 50H150V135Z" fill="var(--text-0)"/>
<path d="M200 35C200 43.2843 193.284 50 185 50H150V15C150 6.71573 156.716 0 165 0H185C193.284 0 200 6.71573 200 15V35Z" fill="var(--text-0)"/>
<path d="M100 215C100 206.716 106.716 200 115 200H135C143.284 200 150 193.284 150 185V165C150 156.716 156.716 150 165 150L235 150C243.284 150 250 156.716 250 165V185C250 193.284 243.284 200 235 200L215 200C206.716 200 200 206.716 200 215V235C200 243.284 193.284 250 185 250H165C156.716 250 150 256.716 150 265V285C150 293.284 143.284 300 135 300H100L100 215Z" fill="var(--primary)"/>
<path d="M50 315C50 306.716 56.7157 300 65 300L100 300L100 335C100 343.284 93.2843 350 85 350L65 350C56.7157 350 50 343.284 50 335L50 315Z" fill="var(--primary)"/>
</svg>
