<svg width="180" height="180" viewBox="0 0 180 180" fill="none" xmlns="http://www.w3.org/2000/svg">
<path fill-rule="evenodd" clip-rule="evenodd" d="M116.472 0.000336171C126.66 0.000336171 134.919 8.2597 134.919 18.4478V27.3916C134.919 37.5798 126.66 45.8391 116.472 45.8391H112.559V67.0809H138.832C149.02 67.0811 157.279 75.3404 157.28 85.5284V94.4722C157.28 104.66 149.02 112.92 138.832 112.92H134.919V116.833C134.919 127.021 126.659 135.279 116.472 135.279H112.559V139.192C112.559 149.38 104.3 157.64 94.1121 157.64H90.1991V161.553C90.1991 171.741 81.9396 180 71.7517 180H62.8079C52.6198 180 44.3604 171.741 44.3604 161.553V152.609C44.3605 142.421 52.6198 134.162 62.8079 134.162H66.7209V112.92H40.4474C30.2593 112.92 22 104.66 22 94.4722V85.5284C22 75.3403 30.2593 67.0809 40.4474 67.0809H44.3604V63.1679C44.3605 52.9801 52.619 44.7207 62.8069 44.7204H66.7199V40.8074C66.7202 30.6194 74.9796 22.3609 85.1674 22.3609H89.0804V18.4478C89.0804 8.2597 97.3397 0.000336171 107.528 0.000336171H116.472ZM62.549 147.864C60.0461 147.997 58.0561 150.072 58.056 152.609V161.553C58.056 164.09 60.0461 166.164 62.549 166.297L62.8184 166.305H71.7412L72.0096 166.297C74.4275 166.168 76.3673 164.229 76.4958 161.811L76.5035 161.553V147.857H62.8184L62.549 147.864ZM110.4 80.7766C108.674 84.0132 106.013 86.6737 102.776 88.3992V94.4971L102.775 94.521L102.766 94.8658V94.8907L102.734 95.3292C102.331 99.4307 99.071 102.692 94.9691 103.095L94.5306 103.128H94.5057L94.1608 103.136L94.137 103.137H88.04C86.3148 106.374 83.6529 109.034 80.4165 110.76V143.944H94.1016L94.3691 143.937C96.8724 143.804 98.863 141.73 98.863 139.192V130.249C98.8631 125.463 102.743 121.584 107.528 121.584H116.472C119.01 121.584 121.083 119.593 121.216 117.09L121.223 116.833V107.888C121.224 103.252 124.865 99.4676 129.444 99.2355L129.47 99.2336H129.495L129.84 99.225L129.863 99.2241H138.822L139.09 99.2164C141.508 99.0878 143.448 97.1481 143.576 94.7302L143.584 94.4722V85.5284C143.584 82.9043 141.456 80.7767 138.832 80.7766H110.4ZM84.9094 36.0632C82.406 36.1963 80.4158 38.2702 80.4156 40.8074V49.777L80.4146 49.8009L80.406 50.1458V50.1706L80.3735 50.6091C79.9701 54.7108 76.7103 57.9707 72.6086 58.374L72.1701 58.4065H72.1453L71.8004 58.4151L71.7765 58.4161H62.8069C60.1832 58.4163 58.0561 60.5436 58.056 63.1679V72.1356L58.0551 72.1605L58.0465 72.5063V72.5311L58.0446 72.5569C57.8122 77.1366 54.0272 80.7766 49.3912 80.7766H40.4579L40.1885 80.7833C37.6856 80.9167 35.6956 82.9909 35.6956 85.5284V94.4722C35.6956 97.0098 37.6856 99.083 40.1885 99.2164L40.4579 99.2241H68.879C70.6043 95.9873 73.2658 93.326 76.5025 91.6005V85.5284C76.5025 80.7431 80.3822 76.8637 85.1674 76.8636H91.2385C92.964 73.6267 95.6261 70.9655 98.863 69.24V36.0565H85.1779L84.9094 36.0632ZM107.27 13.7027C104.767 13.8357 102.776 15.91 102.776 18.4478V32.1435H116.461L116.73 32.1358C119.147 32.0073 121.087 30.0676 121.216 27.6496L121.223 27.3916V18.4478C121.223 15.8236 119.096 13.696 116.472 13.696H107.538L107.27 13.7027Z" fill="#101419"/>
<path d="M100.82 72.1121C100.82 75.8169 97.8164 78.8202 94.1116 78.8202H85.1675C81.4628 78.8202 78.4595 81.8235 78.4595 85.5283V94.4724C78.4595 98.1772 75.4562 101.18 71.7514 101.18H40.4471C36.7424 101.18 33.7391 98.1772 33.7391 94.4724V85.5283C33.7391 81.8235 36.7424 78.8202 40.4471 78.8202H49.3912C53.096 78.8202 56.0993 75.8169 56.0993 72.1121V63.168C56.0993 59.4633 59.1026 56.46 62.8073 56.46H71.7514C75.4562 56.46 78.4595 53.4567 78.4595 49.7519V40.8078C78.4595 37.103 81.4628 34.0997 85.1675 34.0997H100.82V72.1121Z" fill="#F8F9FA"/>
<path d="M123.18 27.3916C123.18 31.0964 120.177 34.0997 116.472 34.0997H100.82V18.4475C100.82 14.7428 103.823 11.7395 107.528 11.7395H116.472C120.177 11.7395 123.18 14.7428 123.18 18.4475V27.3916Z" fill="#F8F9FA"/>
<path d="M78.4595 107.889C78.4595 104.184 81.4628 101.18 85.1676 101.18H94.1117C97.8164 101.18 100.82 98.1772 100.82 94.4724V85.5283C100.82 81.8235 103.823 78.8202 107.528 78.8202L138.832 78.8202C142.537 78.8202 145.54 81.8235 145.54 85.5283V94.4724C145.54 98.1772 142.537 101.18 138.832 101.18L129.888 101.18C126.183 101.18 123.18 104.184 123.18 107.889V116.833C123.18 120.537 120.177 123.541 116.472 123.541H107.528C103.823 123.541 100.82 126.544 100.82 130.249V139.193C100.82 142.898 97.8164 145.901 94.1116 145.901H78.4595L78.4595 107.889Z" fill="#F6734A"/>
<path d="M56.0993 152.609C56.0993 148.904 59.1026 145.901 62.8074 145.901L78.4595 145.901L78.4595 161.553C78.4595 165.258 75.4562 168.261 71.7515 168.261L62.8074 168.261C59.1026 168.261 56.0993 165.258 56.0993 161.553L56.0993 152.609Z" fill="#F6734A"/>
</svg>
